# xmcd
#
# Track frame offsets: 
#        150
#        11565
#        21975
#        33980
#        44130
#        54516
#        65615
#        75820
#        91060
#        103629
#        113528
#        123993
#        134757
#        145533
#        155342
#        164492
#        174842
#        185223
#        196865
#        206724
#        217530
#        228604
#        241153
#        252367
#        261170
#        272914
#        281172
#        291623
#        302352
#        312940
#        323564
#        332000
#        342513
#
# Disc length: 4694 seconds
#
# Revision: 0
# Processed by: cddbd v1.5.2PL0 Copyright (c) Steve Scherf et al.
# Submitted via: ExactAudioCopy v0.99pb5
#
DISCID=de125421
DTITLE=Conway Twitty - Lonely Blue Boy 1957 - 1959
DYEAR=2010
DGENRE=Blues
TTITLE0=I Need Your Lovin'
TTITLE1=Born To Sing The Blues
TTITLE2=Shake It Up
TTITLE3=Maybe Baby
TTITLE4=Double talk Baby
TTITLE5=Why Can't I Get Through To You
TTITLE6=Lonely Blue Boy
TTITLE7=Star Spangled Heaven
TTITLE8=Rosaleena
TTITLE9=It's Only Make Believe
TTITLE10=Hallelujah I Love Her So
TTITLE11=First Romance
TTITLE12=Make Me Know Your Mine
TTITLE13=Sentimental Journey
TTITLE14=I Vibrate
TTITLE15=Story Of My Love
TTITLE16=I'll Try
TTITLE17=You'll Never Walk Alone
TTITLE18=Don't You Know
TTITLE19=My One And Only You
TTITLE20=Mona Lisa
TTITLE21=Danny Boy
TTITLE22=Heavenly
TTITLE23=She's Mine
TTITLE24=Blueberry Hill
TTITLE25=Hey Little Lucy
TTITLE26=Halfway To Heaven
TTITLE27=Hey Miss Ruby
TTITLE28=You Win Again
TTITLE29=Restless
TTITLE30=Beach Comber
TTITLE31=Judge Of Hearts
TTITLE32=Goin' Home
EXTD=
EXTT0=
EXTT1=
EXTT2=
EXTT3=
EXTT4=
EXTT5=
EXTT6=
EXTT7=
EXTT8=
EXTT9=
EXTT10=
EXTT11=
EXTT12=
EXTT13=
EXTT14=
EXTT15=
EXTT16=
EXTT17=
EXTT18=
EXTT19=
EXTT20=
EXTT21=
EXTT22=
EXTT23=
EXTT24=
EXTT25=
EXTT26=
EXTT27=
EXTT28=
EXTT29=
EXTT30=
EXTT31=
EXTT32=
PLAYORDER=
